<svg width="193" height="50" viewBox="0 0 193 50" fill="none" xmlns="http://www.w3.org/2000/svg">
<path d="M191.104 11.5451C192.446 18.2541 191.908 25.2367 191.908 32.0643C191.908 34.0593 190.903 35.9326 189.018 36.6986C184.837 38.3968 179.207 37.5629 174.742 37.5629C170.05 37.5629 165.65 37.192 160.988 36.639C157.822 36.2634 154.588 36.429 151.436 35.8939C149.642 35.5892 148.369 35.2329 147.771 33.5246C146.913 31.074 146.579 28.5511 146.579 25.9696C146.579 23.0235 146.485 20.0626 146.579 17.1182C146.651 14.8449 147.962 12.0046 148.873 9.92084C149.702 8.02579 151.082 8.05817 152.926 8.05817C156.622 8.05817 160.318 8.05817 164.013 8.05817C167.798 8.05817 171.452 7.97137 175.174 8.60952C176.858 8.89821 178.526 9.25994 180.196 9.60791C181.221 9.82144 182.401 9.71433 183.385 9.99535C185.679 10.6509 188.206 11.2769 190.567 11.2769" stroke="#0745A3" stroke-width="1.91308" stroke-linecap="round"/>
<path d="M189.227 17.4457C189.227 19.641 189.559 22.281 188.423 24.2705C187.887 25.2085 185.072 24.6877 184.191 24.6877C183.241 24.6877 182.819 24.82 182.402 23.8682C181.589 22.008 182.231 19.5017 183.326 18.0417C184.242 16.8204 187.575 17.4457 188.959 17.4457" stroke="#0745A3" stroke-width="1.91308" stroke-linecap="round"/>
<path d="M179.035 16.3732C178.473 18.3389 178.494 20.4778 177.947 22.3934C177.822 22.8309 173.047 22.9677 172.851 21.8867C172.72 21.1674 171.257 16.9909 172.597 16.9097C174.912 16.7694 177.198 16.105 179.571 16.105" stroke="#0745A3" stroke-width="1.91308" stroke-linecap="round"/>
<path d="M166.695 15.8364C166.695 16.875 166.969 19.9736 166.218 20.7241C165.457 21.4851 162.638 21.6364 161.987 20.7986C161.611 20.3154 161.14 16.2934 161.748 16.1196C163.593 15.5923 166.421 16.1047 168.305 16.1047" stroke="#0745A3" stroke-width="1.91308" stroke-linecap="round"/>
<path d="M147.92 14.4961C150.666 14.4961 153.213 14.7037 155.833 15.2859C157.061 15.5588 156.937 15.5485 157.249 16.9101C157.412 17.6253 157.308 18.4577 157.308 19.19C157.308 21.5981 155.426 21.5084 153.494 20.9931C151.531 20.4698 148.886 19.8606 146.848 19.8606" stroke="#0745A3" stroke-width="1.91308" stroke-linecap="round"/>
<path d="M191.64 29.7843C186.539 29.7843 181.046 30.3018 175.963 29.6502C173.683 29.3578 171.361 29.3892 169.109 28.9796C166.969 28.5906 164.78 28.1938 162.627 27.9067C159.379 27.4737 156.012 27.4898 152.807 26.8934C151.142 26.5836 149.311 26.2974 147.651 26.2974" stroke="#E80A32" stroke-width="1.91308" stroke-linecap="round"/>
<path d="M191.908 34.0763C182.2 34.0763 172.236 34.672 162.582 33.5994C159.865 33.2975 157.563 31.9845 154.953 31.245C153.493 30.8313 151.864 30.5302 150.363 30.2019C149.484 30.0095 148.397 30.2819 147.651 29.7847" stroke="#E8D10A" stroke-width="1.91308" stroke-linecap="round"/>
<path d="M183.862 38.6353C185.497 38.6353 185.914 42.2644 184.667 42.9865C184.066 43.3345 180.756 43.9872 180.316 43.1951C179.976 42.5828 178.851 39.5795 180.107 39.4399C180.813 39.3615 181.17 38.6353 181.985 38.6353C182.521 38.6353 183.058 38.6353 183.594 38.6353" stroke="#2F2F2F" stroke-width="1.91308" stroke-linecap="round"/>
<path d="M161.063 37.2949C162.829 37.2949 163.685 39.7227 162.464 40.9905C161.765 41.7159 160.557 42.123 159.573 42.123C158.173 42.123 157.654 41.5009 156.414 41.0501C155.862 40.8493 155.967 39.8902 155.967 39.4407C155.967 38.5337 156.265 38.7168 156.906 38.2188C157.986 37.3788 159.966 37.2949 161.331 37.2949" stroke="#2F2F2F" stroke-width="1.91308" stroke-linecap="round"/>
<path d="M3 3C3.142 6.97599 5.14221 10.2515 6.24943 14.0037C7.9091 19.6282 9.14304 25.4937 10.4589 31.2109C11.4776 35.6368 12.5313 39.8856 13.3022 44.3563C13.4892 45.4412 13.388 46.4117 14.2991 46.8673" stroke="#2974E4" stroke-width="5.68463" stroke-linecap="round"/>
<path d="M4.99316 7.65287C6.01752 4.5798 19.2817 4.32959 22.3111 4.32959C28.3195 4.32959 28.5584 5.70572 29.4377 11.6408C30.1749 16.6166 28.0211 19.341 22.9019 20.2444C18.6473 20.9952 14.3557 21.5926 10.0889 22.2753C6.67274 22.8219 15.1734 22.3473 15.9969 22.3122C19.6911 22.155 30.1887 20.4723 32.9087 23.7523C34.8023 26.0358 35.2489 29.0756 34.8657 31.9497C33.945 38.8556 20.9575 42.8796 14.963 42.8796" stroke="#2974E4" stroke-width="5.68463" stroke-linecap="round"/>
<path d="M50.8538 7.65217C49.1372 10.0124 50.1891 15.5425 50.1891 18.2128C50.1891 25.0442 49.8572 31.2114 52.8477 37.5247C54.5275 41.0709 61.6732 48.5049 66.2885 44.0605C76.0789 34.6328 78.1046 18.6592 78.1046 5.6582" stroke="#2974E4" stroke-width="5.68463" stroke-linecap="round"/>
<path d="M117.985 8.31711C117.682 5.89161 106.395 6.9878 104.064 6.9878C100.022 6.9878 97.8725 9.04688 96.8638 12.9697C93.7739 24.986 113.187 22.6944 120.237 23.6042C130.022 24.8667 130.609 37.4186 122.01 41.1806C115.507 44.0258 106.424 43.5439 99.3747 43.5439C94.4911 43.5439 94.4875 42.5273 92.0635 38.8913" stroke="#2974E4" stroke-width="5.68463" stroke-linecap="round"/>
</svg>
